<?xml version="1.0" encoding="UTF-8"?>
<svg viewBox="0 0 84.415 138.7" xmlns="http://www.w3.org/2000/svg">
 <defs>
  <linearGradient id="j" x1="-.54496" x2=".51412" y1=".26384" y2=".50316">
   <stop stop-color="#fff" offset="0"/>
   <stop stop-color="#818181" offset="1"/>
  </linearGradient>
  <linearGradient id="h" x1="-65.251" x2="139.69" y1="-13.439" y2="29.981">
   <stop stop-color="#f3c192" offset="0"/>
   <stop stop-color="#d49035" offset=".5393"/>
   <stop stop-color="#765735" offset="1"/>
  </linearGradient>
  <linearGradient id="i" x1="-45.11" x2="52.001" y1="-45.615" y2="52.394">
   <stop stop-color="#f3c192" offset="0"/>
   <stop stop-color="#d49035" offset=".5393"/>
   <stop stop-color="#765735" offset="1"/>
  </linearGradient>
  <linearGradient id="g" x1=".55904" x2=".50384" y1="1.5869" y2=".24862">
   <stop stop-color="#fff" offset="0"/>
   <stop stop-color="#fdfeff" offset=".4625"/>
   <stop stop-color="#f6faff" offset=".6291"/>
   <stop stop-color="#ebf4ff" offset=".7478"/>
   <stop stop-color="#daeaff" offset=".8438"/>
   <stop stop-color="#c4deff" offset=".9251"/>
   <stop stop-color="#a9d0ff" offset=".9967"/>
   <stop stop-color="#a8cfff" offset="1"/>
  </linearGradient>
  <radialGradient id="f" cx="-314.28" cy="460.08" r="1.6545" gradientTransform="matrix(16.729 -.005 -.005 -16.729 5297.4 7768)" gradientUnits="userSpaceOnUse">
   <stop stop-color="#b9daf4" offset="0"/>
   <stop stop-color="#7a97cb" offset="1"/>
  </radialGradient>
 </defs>
 <g fill="#7f3f00">
  <path d="m74.464 44.583c-1.213 4.198 0.90601 8.655-0.467 12.975-1.108 3.496-3.972 6.009-7.107 7.707 3.315 2.953 7.283-2.632 8.343-6.176 1.342-4.481 0.173-10.054-0.769-14.506m-63.283-14.953c-1.188 0.981-1.53 2.722-1.534 4.171 0.623-1.439 1.191-2.64 1.534-4.171m-1.711-1.191c-4.294 8.188-7.901 17.803-8.45 27.127-0.389 6.629 10.015 17.901 15.65 12.134-7.682-2.251-13.92-6.871-12.715-15.556 0.586-4.213 1.851-8.35 3.321-12.329 1.512-4.096 1.678-7.059 2.194-11.376"/>
  <path d="m73.13 51.428c0 21.853-37.837 19.946-51.332 17.47-7.375-1.351-18.069-4.67-18.069-13.885 0-6.29 2.491-12.87 4.877-18.581 5.942-14.211 18.146-33.056 36.092-30.386 19.469 2.898 28.432 28.329 28.432 45.382"/>
  <path d="m41.401 5.805c-16.997 0-34.009 21.239-32.978 37.428 0.526 8.267 2.235 18.179 10.188 22.583 10.464 4.301 21.039 5.14 32.241 3.845 7.212-0.833 16.399-2.498 21.227-8.546 4.508-5.649 2.093-14.896 0.447-21.211-3.744-14.356-13.85-34.099-31.125-34.099"/>
 </g>
 <path d="m83.422 106.22c0 23.36-22.377 31.62-42.459 31.122-22.232-0.554-41.832-12.059-38.97-36.628 2.474-21.238 19.162-45.65 42.922-44.28 24.206 1.397 38.507 27.928 38.507 49.786" fill="#7f7f7f"/>
 <path d="m43.081 57.293c-23.119 0-38.683 24.397-40.354 45.239-1.924 24.009 19.07 33.912 40.188 33.912-19.184 0-39.871-8.582-38.932-30.756 0.9-21.286 17.556-38.104 39.067-38.104 20.522 0 36.259 15.094 37.899 35.414 1.876 23.24-17.169 33.446-38.019 33.446 20.421 0 40.414-9.477 39.535-32.53-0.81-21.28-15.617-46.621-39.384-46.621" fill="#bfbfbf"/>
 <g fill="#7f7f7f">
  <path d="m13.286 71.531c-12.694 15.877-19.933 44.969-0.483 58.67 16.36 11.522 46.984 11.776 62.201-1.999 16.155-14.623 9.074-42.692-3.006-57.571-16.163-19.906-42.85-18.901-58.712 0.9m-10.877 35.404c0-23.21 17.75-52.58 44.132-49.598 23.056 2.604 36.117 27.785 36.117 48.878 0 21.133-18.863 29.858-37.576 30.339-19.162 0.49-42.673-6.713-42.673-29.619"/>
  <path d="m43.009 125.44c-13.625 0-30.078-2.04-40.015-12.465 3.672 18.271 23.766 23.609 39.953 23.609 16.168 0 35.191-5.408 39.004-23.38-9.647 10.256-25.631 12.236-38.942 12.236"/>
  <path d="m43.081 56.828c21.729 0.014999 36.007 22.021 38.225 41.587 2.554 22.541-13.305 34.675-34.498 35.786-19.047 0.998-43.408-5.999-43.408-28.99 0-21.097 14.525-46.717 37.64-48.309-23.156 1.558-38.05 26.64-38.903 47.819-0.971 24.085 22.214 32.663 42.766 32.15 21.281-0.53 39.641-11.528 37.918-34.867-1.546-20.927-16.445-45.176-39.74-45.176"/>
 </g>
 <g fill="#3f3f3f">
  <path d="m52.125 76.647c-1.327 1.749-5.193 6.763-8.009 4.874-1.713-1.135-2.076-2.673-3.738-0.87601-1.844 1.996 0.379 3.427 1.646 5.397 1.733 2.701 1.576 4.082 5.053 3.771 2.365-0.20901 4.713-0.665 6.973-1.401 0.865-2.008 1.627-4.063 2.29-6.149 1.105-3.473-1.376-4.006-4.215-5.616m14.311-1.582c-0.61 0.332-1.215 0.674-1.812 1.025 1.888 0.662 5.337 1.628 1.812-1.025m-45.437-0.961c-1.965 1.308-3.297 1.29-1.612 3.565 1.641 2.214 3.695 4.112 5.915 5.733 1.116-2.266 3.957-3.268 5.461-5.226-3.075-0.953-8.719-0.035004-9.764-4.072m47.11-5.425c0.259 0.477 0.602 0.89 1.029 1.239 0.009003-0.551-0.334-0.964-1.029-1.239m-45.082-4.517c-1.167 0.865-6.833 4.721-6.678 6.273 0.639-0.713 6.312-6.551 6.678-6.273"/>
  <path d="m68.949 72.756c-1.16 2.473-3.816 1.13-0.958 3.552 0.451-1.149 0.77-2.332 0.958-3.552m-0.631-3.732c0.269 0.664 0.536 1.327 0.805 1.99 0.263-0.866-0.003998-1.53-0.805-1.99m-45.185-4.785c-4.795 3.534-8.292 5.997-4.815 11.829 3.544-2.849 2.999-7.053 6.11-10.929-0.432-0.299-0.864-0.6-1.295-0.9m36.448-0.198c-0.817 0.14-1.329 0.511-1.532 1.113 0.47 0.302 0.938 0.603 1.408 0.906 0.042-0.674 0.084-1.346 0.124-2.019"/>
 </g>
 <path d="m59.133 60.518c-10.252-7.169-23.562-6.049-34.011 0.405 2.971 4.635 6.365 9.011 10.178 12.983 2.222 2.314 6.22 7.264 9.567 7.928 7.551 1.494 13.547-16.341 14.266-21.316" fill="#f4f4f4"/>
 <path d="m25.458 62.65c-0.792 0.501-1.567 1.032-2.325 1.589 1.944 1.425 1.713 0.285 3.083-1.133-0.252-0.153-0.506-0.304-0.758-0.456" fill="#3f3f3f"/>
 <path d="m28.772 64.443c0.264 0.488 0.306 0.721 0.775 0.35-0.259-0.117-0.516-0.233-0.775-0.35m29.656-0.578c-0.452 0.221-0.903 0.443-1.355 0.663 0.997 1.05 1.02 0.563 1.355-0.663" fill="url(#f)"/>
 <path d="m34.684 74.409c0-2.641 19.257 0.122 21.146 0.536 2.799 0.608 4.283 0.96 3.667 4.001-0.855 4.219-2.489 8.357-4.188 12.298-1.061 2.461-2.651 7.536-5.307 8.823-1.736 0.842-4.506-4.436-5.126-5.422-2.494-3.965-4.705-8.118-6.786-12.312-1.047-2.11-3.406-5.463-3.406-7.924" fill="#fff"/>
 <path d="m51.093 79.747c1.015 2.627 4.122 8.265 3.102 11.061-1.008 2.764-3.319 11.371-6.775 7.454-4.01-4.545-4.364-7.042-2.86-12.619 1.456-5.398 1.009-5.483 6.533-5.896" fill="#7f7f7f"/>
 <path d="m51.018 78.783c-5.322 0.403-5.515-0.19199-6.922 4.887-1.834 6.624-2.188 9.919 2.724 15.372 4.251 4.732 6.934-4.324 8.164-7.589 0.938-2.489-1.668-12.104-3.966-12.67m-0.572 1.979c2.529 6.621 4.137 12.054-1.228 17.911-2.021-1.46-5.426-5.604-4.861-8.27 0.451-2.124 1.052-4.225 1.632-6.315 0.916-3.313 1.159-3.079 4.457-3.326" fill="#3f3f3f"/>
 <path d="m43.033 75.929c0.962-0.747 3.125-3.229 4.289-3.337 0.659-0.063004 4.405 1.717 4.474 2.313 0.796 6.866-6.586 6.326-8.763 1.024" fill="#7f7f7f"/>
 <path d="m46.728 71.827c-0.835 0.64899-5.07 3.219-4.727 4.11 1.104 2.872 3.527 5.818 6.956 5.301 6.962-1.052 3.879-10.645-2.229-9.411m0.724 1.886c1.139 0.523 2.274 1.045 3.414 1.563 0.108 1.613-0.156 3.749-2.198 4.049-1.634 0.249-2.944-0.848-3.813-2.082-1.188-1.684 1.275-2.493 2.597-3.53" fill="#3f3f3f"/>
 <path d="m55.742 65.105c-4.023 1.644-8.36 2.479-12.706 2.479-3.845 0-10.155-2.92-13.365-1.528 2.843 4.998 5.917 9.866 8.994 14.723 1.611-1.866 6.058-7.432 8.857-7.687 2.705-0.25 7.944 4.104 9.858 5.567 0.554-2.136 1.006-4.3 1.358-6.478 0.713-4.422 0.7-4.702-2.996-7.076" fill="url(#g)"/>
 <path d="m45.931 57.682c-7.202 3.125-14.401 6.251-21.604 9.376 4.447 5.935 8.387 12.055 12.362 18.319 2.721-4.143 8.306-12.396 13.617-9.704 1.872 0.94701 9.033 7.297 10.46 6.854 2.548-0.781 3.343-7.738 3.789-9.826 1.013-4.744-3.31-5.492-7.173-7.973-3.299-2.123-7.737-6.203-11.451-7.046m0.195 1.248c4.063 2.626 8.14 5.228 12.21 7.839 1.763 1.133 3.527 2.266 5.291 3.397 0.778 0.498-1.808 10.225-3.174 11.146-2.265-2.232-9.263-8.614-12.932-8.22-3.609 0.38599-8.932 7.551-10.772 10.11-3.372-5.364-6.757-10.576-10.546-15.649 6.647-2.861 13.282-5.752 19.923-8.623" fill="#6e92f9"/>
 <path d="m27.193 63.504c6.217 12.368 14.467 23.929 22.084 35.466 5.201-6.974 8.316-15.709 9.982-24.164 0.745-3.785 1.185-7.629 1.329-11.481 0.021999-0.549 3.812 2.503 4.012 2.699 1.362 1.328 3.947 3.757 3.595 5.927-0.353 2.163-5.175 2.629-5.175 4.26 0 1.994 7.377 0.88 5.707 4.446-1.798 3.833-4.816 7.303-7.572 10.461-3.119 3.572-9.378 12.038-14.028 9.336-5.857-3.402-11.63-7.126-16.785-11.539-0.93-0.797-5.15-3.757-3.985-5.378 0.873-1.214 7.953-5.548 4.267-6.408-2.911-0.681-8.984-0.057999-8.789-4.46 0.155-3.479 3.035-6.795 5.358-9.165" fill="#7f7f7f"/>
 <path d="m26.502 62.813c-2.561 2.559-5.655 6.231-5.655 10.051 0 5.215 6.48 4.248 9.915 5.313-4.251 5.538-7.83 5.53-1.53 11.069 2.863 2.519 5.974 4.761 9.137 6.883 2.108 1.416 8.691 7.083 11.146 6.785 2.002-0.241 5.227-3.936 6.65-5.254 3.357-3.105 6.438-6.532 9.218-10.162 4.051-5.291 6.932-8.711-0.76-11.408 4.823-3.103 5.799-5.302 1.553-9.845-1.198-1.283-3.438-3.866-5.339-4.031-2.054-0.179-1.651 6.82-1.837 8.192-1.273 9.377-4.34 18.969-9.695 26.853-7.552-11.51-15.742-23.017-21.858-35.375-0.314 0.311-0.628 0.62-0.945 0.929m3.061 19.069c5.243-4.3 2.782-5.462-2.738-6.324-6.806-1.063-3.026-6.877 0.143-10.404 6.546 12.193 14.433 23.833 22.144 35.315-5.969-3.39-11.819-7.11-17.143-11.46-3.247-2.657-6.308-3.975-2.406-7.127m20.479 17.689c7.484-9.618 10.789-23.037 11.433-34.941 2.42 1.735 8.219 6.225 4.06 8.729-8.043 4.841 1.131 2.805 2.541 6.378-0.479 3.197-4.568 7.091-6.523 9.412-3.42 4.065-7.62 9.01-12.29 11.411 0.259-0.32999 0.519-0.66 0.779-0.989" fill="#3f3f3f"/>
 <path d="m74.766 36.245c0 17.134-14.967 30.5-31.73 30.5-16.761 0-31.714-13.376-31.714-30.5 0-17.119 14.958-30.501 31.714-30.501 16.758-1e-3 31.73 13.374 31.73 30.501" fill="#fcd095"/>
 <path d="m21.777 24.813c7.063-8.299 19.275-10.453 29.489-7.896 11.724 2.937 17.8 12.202 19.585 23.692 2.497-16.63-11.371-31.039-27.815-31.039-16.461 0-30.287 14.426-27.799 31.055 0.866-5.57 2.825-11.47 6.54-15.812" fill="#ffe2ae"/>
 <path d="m73.626 32.583c-1.768 13.546-9.18 23.894-23.344 26.367-17.207 3.004-34.944-7.73-37.739-25.776-0.047 1.054 0 2.102 0.142 3.146-0.142-0.881-0.257-1.763-0.345-2.652-1.836 19.191 16.056 34.237 34.56 32.006 16.211-1.958 28.78-16.626 26.726-33.091" fill="#fabb78"/>
 <g fill="#7f3f00">
  <path d="m72.464 27.352c5.858 17.885-7.398 36.128-25.564 38.322-10.063 1.214-20.374-2.473-27.185-10.026-3.328-3.692-5.711-8.201-6.805-13.054-0.671-2.971-2.23-11.156 0.184-13.603-4.34-0.167-2.567 10.749-2.017 13.417 1.112 5.399 3.726 10.419 7.435 14.49 5.106 5.604 12.113 9.253 19.614 10.337 9.855 1.423 20.095-1.602 27.434-8.354 7.393-6.803 15.121-23.065 6.904-31.529m1.803-0.108c0.021004 0.319 0.299 0.982 0 0"/>
  <path d="m65.628 10.171c5.391 5.529 8.4 10.305 8.717 18.467-0.015999-0.459-6.111-5.721-7.033-6.477-2.206-1.809-6.392 3.005-8.875 4.051-10.132 4.265-18.687 1.193-28.968 1.253-4.325 0.025-6.734 3.044-10.563 3.78-2.39 0.459-4.321-3.151-7.093-2.458-3.283 0.818-2.217 6.749-1.722 9.077-8.316-29.954 35.862-47.82 55.537-27.693"/>
  <path d="m73.851 23.942c0.114 0.962 0.194 1.928 0.239 2.895-0.004997-0.112-5.029-4.594-5.602-5.159-3.455-3.401-3.614-1.055-6.998 1.043-7.448 4.62-17.01 5.242-25.422 3.74-3.727-0.666-7.669-1.342-11.363-0.101-2.103 0.707-5.189 4.057-7.505 2.691-5.602-3.301-8.449-0.262-7.485 5.856-0.942-7.586 4.276-4.95 8.506-3.699 1.911 0.566 5.059-2.478 6.75-3.047 4.441-1.498 9.146-0.241 13.596 0.477 7.568 1.223 16.588-0.041 23.187-4.12 1.939-1.199 3.328-4.188 5.552-2.359 0.925 0.76 7.024 6.013 7.04 6.477-0.059998-1.574-0.224-3.14-0.495-4.694"/>
 </g>
 <path d="m13.138 28.993c-0.257 0.98-0.887 3.669-0.797 4.675 0.065001-0.658 0.475-4.083 3.301-3.198 0.315-1.289-1.482-1.448-2.504-1.477m50.28-5.405c-8.2 5.52-18.441 6.168-27.883 4.525-3.826-0.666-7.88-1.185-11.559 0.434-1.281 0.742-3.66 2.725-5.349 2.725-0.686 0.104-0.515-0.509-0.839 0.264 2.655 1.664 3.762 0.353 6.284-1.112 4.195-2.434 9.056-1.685 13.581-0.877 8.784 1.569 19.496 0.876 26.868-4.763-0.367-0.4-0.735-0.799-1.103-1.196m2.936-2.097c0.94601 1.345 1.951 1.628 3.181 2.784-0.94701-1.06-2.006-1.987-3.181-2.784" fill="#f2bd7e"/>
 <path d="m15.805 29.834c-0.378 1.396 0.587 0.835 1.984 1.701 0.447-1.068-1.189-1.264-1.984-1.701m50.256-8.477c-0.794 0.847-1.675 1.589-2.643 2.231 2.749 2.767 1.197-1.208 3.668-1.003-0.148-0.636-0.489-1.045-1.025-1.228" fill="#f3c58a"/>
 <path d="m12.46 32.583c-0.163 1.292 0.03 2.455 0.225 3.736-0.149-1.251-0.061001-2.494-0.225-3.736" fill="#f1b26f"/>
 <path d="m13.094 28.991c-1.078 1.092-0.877 3.222-0.763 4.568 9e-3 -0.111 0.586-4.568 0.763-4.568" fill="url(#h)"/>
 <path d="m18.784 31.264c-0.209 0.011-0.209 0.011 0 0m1.168-0.449c-0.304 0.161-0.304 0.161 0 0m10.479-3.333c1.716 0.098999 3.417 0.309 5.105 0.631-1.688-0.322-3.39-0.532-5.105-0.631m-0.85-0.018c-0.579 0.007999-0.579 0.007999 0 0m39.748-4.938c1.264 1.299 2.448 2.689 3.786 3.916-1.253-1.311-2.471-2.665-3.786-3.916" fill="#f3bc35"/>
 <path d="m75.141 25.232c0.099998 0.855 1.079 4.15-0.725 2.51-0.201 1.209 0.162 1.997 1.085 2.364 0.462 0-0.315-4.604-0.36-4.874" fill="#f3d4b2"/>
 <path d="m74.292 27.626c0.017998 0.337 0.036003 0.676 0.053001 1.011-0.038002 0.065001-0.078003 0.13-0.117 0.193-0.27599-0.187-0.55-0.373-0.824-0.558 3.229 3.387 1.429-0.126 0.888-0.646" fill="url(#i)"/>
 <path d="m74.345 28.638c-0.157 0.257-0.157 0.257 0 0m-0.054-1.013c0.018997 0.339 0.038002 0.675 0.055 1.013 0.204-0.436 0.185-0.773-0.055-1.013" fill="#f3bc35"/>
 <g fill="#7f3f00">
  <path d="m14.357 28.496c-0.422 0.164-0.842 0.33-1.264 0.495 2.928 0 4.365 3.257 7.207 1.631-1.958 0.737-3.882-2.126-5.943-2.126m46.26-3.321c-5.154 2.463-11.039 3.373-16.71 3.373-6.648 0-13.588-3.553-19.93-9.99e-4 5.232-2.304 10.92-0.318 16.264 0.332 6.701 0.817 14.42-0.505 20.376-3.704m6.157-4.394c-0.318 0.082001-0.556 0.273-0.713 0.576 1.114 0.397 8.269 6.862 8.284 7.28-0.345-1.78-5.246-7.856-7.571-7.856"/>
  <path d="m74.106 24.97c0.024994 0.208 0.45599 3.051 0.138 3.087-2.813 0.317-5.209-7.403-8.472-7.534-1.128-0.045-5.819 4.281-7.335 4.919-4.879 2.056-10.282 2.851-15.551 2.851-4.526 0-8.882-1.623-13.416-1.599-3.389 0.02-8.58 4.532-11.25 3.744-1.668-0.492-4.424-3.565-6.189-1.668-1.579 1.698-0.677 5.299-0.365 7.299-0.216-1.766-0.866-5.484 1.008-6.663 2.294-1.445 4.109 2.245 6.23 1.836 3.829-0.739 6.24-3.754 10.566-3.778 4.534-0.025002 8.89 1.597 13.416 1.597 7.346 0 17.419-1.114 22.481-7.225 1.465-1.765 7.298 7.257 8.876 6.994 0.413-0.069-0.079994-3.549-0.13699-3.86"/>
  <path d="m61.261 19.015c0 9.715-35.65 8.844-35.65 0.642 6.511 1.415 13.671 2.588 20.328 1.947 1.775-0.171 15.322-4.978 15.322-2.589"/>
  <path d="m10.223 33.506c0-20.542 21.476-33.382 40.309-29.158 18.808 4.219 31.07 25.51 22.787 43.863 11.274-20.286-5.063-45.383-26.546-47.973-11.089-1.339-22.352 3.04-29.709 11.426-7.508 8.556-11.11 23.189-5.3 33.64-1.66-3.676-1.541-7.856-1.541-11.798"/>
 </g>
 <path d="m20.222 40.466c0 4.885-2.409 12.781-8.52 12.781s-8.521-7.897-8.521-12.781c0-4.885 2.41-12.782 8.521-12.782s8.52 7.897 8.52 12.782" fill="#fff"/>
 <path d="m2.687 40.596c0.286 5.237 3.213 13.885 9.778 13.79 6.578-0.096001 8.534-8.968 8.253-14.05-0.286-5.238-3.213-13.886-9.78-13.79-6.58 0.094-8.531 8.968-8.251 14.05m1.472-0.021c-0.233-4.248 1.173-12.388 6.866-12.473 5.68-0.083 7.981 7.86 8.222 12.254 0.233 4.247-1.175 12.389-6.868 12.471-5.678 0.082001-7.981-7.859-8.22-12.252" fill="url(#j)"/>
 <path d="m11.323 40.466c0 10.144-10.98 10.144-10.98 0 0-10.143 10.98-10.143 10.98 0" fill="#5e5d5d"/>
 <g fill="#383838">
  <path d="m0.023 40.551c0.59 10.783 12.232 11.06 11.618-0.169-0.588-10.784-12.231-11.062-11.618 0.169m0.948-0.015c-0.544-9.915 9.199-9.661 9.722-0.142 0.543 9.916-9.199 9.664-9.722 0.142"/>
  <path d="m45.883 61.228c-0.901 4.464-17.85 0.544-20.281-1.484-4.166-3.481-8.333-6.958-12.5-10.438-1.736-1.447-7.012-4.503-7.201-7.195-0.288-4.112 5.881 1.405 6.616 2.048 4.253 3.723 8.522 7.426 12.844 11.069 3.64 3.067 7.815 3.246 12.425 2.801 2.961-0.285 9.185-2.289 8.097 3.199"/>
 </g>
</svg>
